# Blender v2.78 (sub 0) OBJ File: ''
# www.blender.org
mtllib defaultCone.mtl
o Cone_Cone.001
v 0.000000 -1.000000 -1.000000
v 0.195090 -1.000000 -0.980785
v 0.382683 -1.000000 -0.923880
v 0.555570 -1.000000 -0.831470
v 0.707107 -1.000000 -0.707107
v 0.831470 -1.000000 -0.555570
v 0.923880 -1.000000 -0.382683
v 0.980785 -1.000000 -0.195090
v 1.000000 -1.000000 -0.000000
v 0.000000 1.000000 0.000000
v 0.980785 -1.000000 0.195090
v 0.923880 -1.000000 0.382683
v 0.831470 -1.000000 0.555570
v 0.707107 -1.000000 0.707107
v 0.555570 -1.000000 0.831470
v 0.382683 -1.000000 0.923880
v 0.195090 -1.000000 0.980785
v -0.000000 -1.000000 1.000000
v -0.195091 -1.000000 0.980785
v -0.382684 -1.000000 0.923879
v -0.555571 -1.000000 0.831469
v -0.707107 -1.000000 0.707106
v -0.831470 -1.000000 0.555570
v -0.923880 -1.000000 0.382683
v -0.980785 -1.000000 0.195089
v -1.000000 -1.000000 -0.000001
v -0.980785 -1.000000 -0.195091
v -0.923879 -1.000000 -0.382684
v -0.831469 -1.000000 -0.555571
v -0.707106 -1.000000 -0.707108
v -0.555569 -1.000000 -0.831470
v -0.382682 -1.000000 -0.923880
v -0.195089 -1.000000 -0.980786
vt 0.2500 0.4900
vt 0.2500 0.2500
vt 0.2968 0.4854
vt 0.3418 0.4717
vt 0.3833 0.4496
vt 0.4197 0.4197
vt 0.4496 0.3833
vt 0.4717 0.3418
vt 0.4854 0.2968
vt 0.4900 0.2500
vt 0.4854 0.2032
vt 0.4717 0.1582
vt 0.4496 0.1167
vt 0.4197 0.0803
vt 0.3833 0.0504
vt 0.3418 0.0283
vt 0.2968 0.0146
vt 0.2500 0.0100
vt 0.2032 0.0146
vt 0.1582 0.0283
vt 0.1167 0.0504
vt 0.0803 0.0803
vt 0.0504 0.1167
vt 0.0283 0.1582
vt 0.0146 0.2032
vt 0.0100 0.2500
vt 0.0146 0.2968
vt 0.0283 0.3418
vt 0.0504 0.3833
vt 0.0803 0.4197
vt 0.1167 0.4496
vt 0.1582 0.4717
vt 0.2032 0.4854
vt 0.7500 0.4900
vt 0.7968 0.4854
vt 0.8418 0.4717
vt 0.8833 0.4496
vt 0.9197 0.4197
vt 0.9496 0.3833
vt 0.9717 0.3418
vt 0.9854 0.2968
vt 0.9900 0.2500
vt 0.9854 0.2032
vt 0.9717 0.1582
vt 0.9496 0.1167
vt 0.9197 0.0803
vt 0.8833 0.0504
vt 0.8418 0.0283
vt 0.7968 0.0146
vt 0.7500 0.0100
vt 0.7032 0.0146
vt 0.6582 0.0283
vt 0.6167 0.0504
vt 0.5803 0.0803
vt 0.5504 0.1167
vt 0.5283 0.1582
vt 0.5146 0.2032
vt 0.5100 0.2500
vt 0.5146 0.2968
vt 0.5283 0.3418
vt 0.5504 0.3833
vt 0.5803 0.4197
vt 0.6167 0.4496
vt 0.6582 0.4717
vt 0.7032 0.4854
vn 0.0878 0.4455 -0.8910
vn 0.2599 0.4455 -0.8567
vn 0.4220 0.4455 -0.7896
vn 0.5680 0.4455 -0.6921
vn 0.6921 0.4455 -0.5680
vn 0.7896 0.4455 -0.4220
vn 0.8567 0.4455 -0.2599
vn 0.8910 0.4455 -0.0878
vn 0.8910 0.4455 0.0878
vn 0.8567 0.4455 0.2599
vn 0.7896 0.4455 0.4220
vn 0.6921 0.4455 0.5680
vn 0.5680 0.4455 0.6921
vn 0.4220 0.4455 0.7896
vn 0.2599 0.4455 0.8567
vn 0.0878 0.4455 0.8910
vn -0.0878 0.4455 0.8910
vn -0.2599 0.4455 0.8567
vn -0.4220 0.4455 0.7896
vn -0.5680 0.4455 0.6921
vn -0.6921 0.4455 0.5680
vn -0.7896 0.4455 0.4220
vn -0.8567 0.4455 0.2599
vn -0.8910 0.4455 0.0878
vn -0.8910 0.4455 -0.0878
vn -0.8567 0.4455 -0.2599
vn -0.7896 0.4455 -0.4220
vn -0.6921 0.4455 -0.5680
vn -0.5680 0.4455 -0.6921
vn -0.4220 0.4455 -0.7896
vn -0.2599 0.4455 -0.8567
vn -0.0878 0.4455 -0.8910
vn 0.0000 -1.0000 -0.0000
usemtl None
s off
f 1/1/1 10/2/1 2/3/1
f 2/3/2 10/2/2 3/4/2
f 3/4/3 10/2/3 4/5/3
f 4/5/4 10/2/4 5/6/4
f 5/6/5 10/2/5 6/7/5
f 6/7/6 10/2/6 7/8/6
f 7/8/7 10/2/7 8/9/7
f 8/9/8 10/2/8 9/10/8
f 9/10/9 10/2/9 11/11/9
f 11/11/10 10/2/10 12/12/10
f 12/12/11 10/2/11 13/13/11
f 13/13/12 10/2/12 14/14/12
f 14/14/13 10/2/13 15/15/13
f 15/15/14 10/2/14 16/16/14
f 16/16/15 10/2/15 17/17/15
f 17/17/16 10/2/16 18/18/16
f 18/18/17 10/2/17 19/19/17
f 19/19/18 10/2/18 20/20/18
f 20/20/19 10/2/19 21/21/19
f 21/21/20 10/2/20 22/22/20
f 22/22/21 10/2/21 23/23/21
f 23/23/22 10/2/22 24/24/22
f 24/24/23 10/2/23 25/25/23
f 25/25/24 10/2/24 26/26/24
f 26/26/25 10/2/25 27/27/25
f 27/27/26 10/2/26 28/28/26
f 28/28/27 10/2/27 29/29/27
f 29/29/28 10/2/28 30/30/28
f 30/30/29 10/2/29 31/31/29
f 31/31/30 10/2/30 32/32/30
f 32/32/31 10/2/31 33/33/31
f 33/33/32 10/2/32 1/1/32
f 1/34/33 2/35/33 3/36/33 4/37/33 5/38/33 6/39/33 7/40/33 8/41/33 9/42/33 11/43/33 12/44/33 13/45/33 14/46/33 15/47/33 16/48/33 17/49/33 18/50/33 19/51/33 20/52/33 21/53/33 22/54/33 23/55/33 24/56/33 25/57/33 26/58/33 27/59/33 28/60/33 29/61/33 30/62/33 31/63/33 32/64/33 33/65/33
